<svg xmlns="http://www.w3.org/2000/svg" style="display:none" aria-hidden="true">
  <!-- Agentic AI mark: selected Spark Duotone from the AI icon concept. -->
  <symbol id="icon-ai" viewBox="0 0 32 32">
    <path fill="var(--ai-icon-base, #29707A)" d="M14 6 C14.9 12.9 19.6 17.6 26.5 18.5 C19.6 19.4 14.9 24.1 14 31 C13.1 24.1 8.4 19.4 1.5 18.5 C8.4 17.6 13.1 12.9 14 6 Z"></path>
    <path fill="var(--ai-icon-accent, #FF462D)" d="M24.5 1 C24.9 4.1 27 6.2 30.1 6.6 C27 7 24.9 9.1 24.5 12.2 C24.1 9.1 22 7 18.9 6.6 C22 6.2 24.1 4.1 24.5 1 Z"></path>
  </symbol>
  <!-- Agent-derived insight: the companion mark for AI-created recommendations. -->
  <symbol id="icon-ai-insight" viewBox="0 0 32 32">
    <path fill="none" stroke="currentColor" stroke-width="2" stroke-linejoin="round" stroke-linecap="round" d="M16 3.5 a9 9 0 0 1 5.3 16.3 c-1.1 .8-1.8 1.9-2 3.2 H12.7 c-.2-1.3-.9-2.4-2-3.2 A9 9 0 0 1 16 3.5 Z"></path>
    <path fill="none" stroke="currentColor" stroke-width="2" stroke-linecap="round" d="M12.5 26.5 h7 M13.8 29.5 h4.4"></path>
    <path fill="var(--ai-icon-accent, #FF462D)" d="M16 7 C16.4 10.2 18.5 12.3 21.7 12.7 C18.5 13.1 16.4 15.2 16 18.4 C15.6 15.2 13.5 13.1 10.3 12.7 C13.5 12.3 15.6 10.2 16 7 Z"></path>
  </symbol>
  <symbol id="icon-analytics" viewBox="0 0 28 28"><path d="M 1 0 C 1.552 0 2 0.448 2 1 L 2 25 C 2 25.552 2.448 26 3 26 L 27 26 C 27.552 26 28 26.448 28 27 C 28 27.552 27.552 28 27 28 L 3 28 C 1.343 28 0 26.657 0 25 L 0 1 C 0 0.448 0.448 0 1 0 Z M 24.844 1.745 C 25.679 1.644 26.434 2.251 26.517 3.088 L 26.989 7.897 C 27.043 8.447 26.641 8.936 26.092 8.99 C 25.542 9.044 25.052 8.642 24.998 8.093 L 24.717 5.227 L 18.146 15.085 C 17.646 15.834 16.604 15.977 15.921 15.392 L 10.453 10.705 L 5.941 23.336 C 5.756 23.856 5.184 24.127 4.664 23.941 C 4.144 23.756 3.873 23.184 4.059 22.664 L 8.569 10.032 C 9.041 8.712 10.69 8.274 11.755 9.187 L 16.794 13.506 L 23.155 3.963 L 20.118 4.329 C 19.57 4.395 19.072 4.004 19.006 3.456 C 18.94 2.908 19.331 2.41 19.879 2.344 L 24.844 1.745 Z" fill="currentColor" fill-rule="nonzero"></path></symbol>
  <symbol id="icon-anomaly" viewBox="0 0 28.134 28.134"><path d="M 11.762 0 C 18.257 0 23.522 5.266 23.522 11.762 C 23.522 14.649 22.48 17.292 20.753 19.339 L 27.841 26.426 C 28.231 26.816 28.231 27.45 27.841 27.841 C 27.45 28.231 26.816 28.231 26.426 27.841 L 19.339 20.753 C 17.292 22.48 14.649 23.522 11.762 23.522 C 5.266 23.522 0 18.257 0 11.762 C 0 5.266 5.266 0 11.762 0 Z M 11.762 2 C 6.371 2 2 6.371 2 11.762 C 2 17.153 6.371 21.522 11.762 21.522 C 17.152 21.522 21.522 17.152 21.522 11.762 C 21.522 6.371 17.153 2 11.762 2 Z M 12.598 6.067 C 13.009 6.08 13.37 6.343 13.509 6.73 L 15.771 13.066 L 19.066 13.066 C 19.619 13.066 20.066 13.514 20.066 14.066 C 20.066 14.619 19.619 15.066 19.066 15.066 L 15.066 15.066 C 14.644 15.066 14.267 14.801 14.125 14.403 L 12.482 9.803 L 10.485 14.461 C 10.328 14.828 9.966 15.066 9.566 15.066 L 5.066 15.066 C 4.514 15.066 4.066 14.619 4.066 14.066 C 4.067 13.514 4.514 13.067 5.066 13.066 L 8.907 13.066 L 11.647 6.673 C 11.809 6.295 12.187 6.055 12.598 6.067 Z" fill="currentColor" fill-rule="nonzero"></path></symbol>
  <symbol id="icon-chat-bot" viewBox="0 0 28 28"><path d="M 14 2.5 C 14.27 2.5 14.529 2.61 14.717 2.803 L 24.717 13.053 C 25.103 13.448 25.095 14.081 24.7 14.467 C 24.305 14.853 23.672 14.845 23.286 14.45 L 15 5.957 L 15 24.5 C 15 25.052 14.552 25.5 14 25.5 C 13.448 25.5 13 25.052 13 24.5 L 13 5.957 L 4.714 14.45 C 4.328 14.845 3.695 14.853 3.3 14.467 C 2.905 14.081 2.897 13.448 3.283 13.053 L 13.283 2.803 C 13.471 2.61 13.73 2.5 14 2.5 Z" fill="currentColor"></path></symbol>
  <symbol id="icon-checkmark-filled" viewBox="0 0 28 28"><path d="M 28 14 C 28 21.732 21.732 28 14 28 C 6.268 28 0 21.732 0 14 C 0 6.268 6.268 0 14 0 C 21.732 0 28 6.268 28 14 Z M 20.737 9.676 C 21.11 9.269 21.083 8.636 20.676 8.263 C 20.269 7.89 19.636 7.917 19.263 8.324 L 11.75 16.52 L 8.737 13.233 C 8.364 12.826 7.731 12.799 7.324 13.172 C 6.917 13.545 6.89 14.178 7.263 14.585 L 11.013 18.676 C 11.202 18.882 11.47 19 11.75 19 C 12.03 19 12.298 18.882 12.487 18.676 L 20.737 9.676 Z" fill="currentColor" fill-rule="evenodd"></path></symbol>
  <symbol id="icon-dashboard" viewBox="0 0 28 28"><path d="M 2 3 C 2 2.401 2.45 2 2.905 2 L 9.095 2 C 9.55 2 10 2.401 10 3 L 10 6 C 10 6.599 9.55 7 9.095 7 L 2.905 7 C 2.45 7 2 6.599 2 6 L 2 3 Z M 2.905 0 C 1.255 0 0 1.39 0 3 L 0 6 C 0 7.61 1.255 9 2.905 9 L 9.095 9 C 10.745 9 12 7.61 12 6 L 12 3 C 12 1.39 10.745 0 9.095 0 L 2.905 0 Z M 2 13.905 C 2 13.405 2.405 13 2.905 13 L 9.095 13 C 9.595 13 10 13.405 10 13.905 L 10 25.095 C 10 25.595 9.595 26 9.095 26 L 2.905 26 C 2.405 26 2 25.595 2 25.095 L 2 13.905 Z M 2.905 11 C 1.301 11 0 12.301 0 13.905 L 0 25.095 C 0 26.699 1.301 28 2.905 28 L 9.095 28 C 10.699 28 12 26.699 12 25.095 L 12 13.905 C 12 12.301 10.699 11 9.095 11 L 2.905 11 Z M 25.095 26 C 25.55 26 26 25.599 26 25 L 26 22 C 26 21.401 25.55 21 25.095 21 L 18.905 21 C 18.45 21 18 21.401 18 22 L 18 25 C 18 25.599 18.45 26 18.905 26 L 25.095 26 Z M 28 25 C 28 26.61 26.745 28 25.095 28 L 18.905 28 C 17.255 28 16 26.61 16 25 L 16 22 C 16 20.39 17.255 19 18.905 19 L 25.095 19 C 26.745 19 28 20.39 28 22 L 28 25 Z M 26 14.095 C 26 14.595 25.595 15 25.095 15 L 18.905 15 C 18.405 15 18 14.595 18 14.095 L 18 2.905 C 18 2.405 18.405 2 18.905 2 L 25.095 2 C 25.595 2 26 2.405 26 2.905 L 26 14.095 Z M 25.095 17 C 26.699 17 28 15.699 28 14.095 L 28 2.905 C 28 1.301 26.699 0 25.095 0 L 18.905 0 C 17.301 0 16 1.301 16 2.905 L 16 14.095 C 16 15.699 17.301 17 18.905 17 L 25.095 17 Z" fill="currentColor" fill-rule="evenodd"></path></symbol>
  <symbol id="icon-document-chart" viewBox="0 0 26 28"><path d="M 15 0 C 15.271 0 15.517 0.109 15.697 0.284 L 15.699 0.285 L 22.699 7.126 L 22.837 7.453 C 22.901 7.552 22.948 7.663 22.975 7.781 L 23 7.841 L 23 11 C 23 11.552 22.552 12 22 12 C 21.448 12 21 11.552 21 11 L 21 9 L 16.398 9 C 15.076 9 14 7.924 14 6.602 L 14 2 L 3.802 2 C 2.784 2 2 2.799 2 3.738 L 2 24.262 C 2 25.201 2.784 26 3.802 26 L 5 26 C 5.552 26 6 26.448 6 27 C 6 27.552 5.552 28 5 28 L 3.802 28 C 1.723 28 0 26.348 0 24.262 L 0 3.738 C 0 1.652 1.723 0 3.802 0 L 15 0 Z M 24 14 C 24.552 14 25 14.448 25 15 L 25 26 C 25.552 26 26 26.448 26 27 C 26 27.552 25.552 28 25 28 L 8 28 C 7.448 28 7 27.552 7 27 C 7 26.448 7.448 26 8 26 L 8 22 C 8 21.448 8.448 21 9 21 L 12 21 C 12.552 21 13 21.448 13 22 L 13 26 L 14 26 L 14 19 C 14 18.448 14.448 18 15 18 L 18 18 C 18.552 18 19 18.448 19 19 L 19 26 L 20 26 L 20 15 C 20 14.448 20.448 14 21 14 L 24 14 Z M 10 26 L 11 26 L 11 23 L 10 23 L 10 26 Z M 16 26 L 17 26 L 17 20 L 16 20 L 16 26 Z M 22 26 L 23 26 L 23 16 L 22 16 L 22 26 Z M 16 6.602 C 16 6.82 16.18 7 16.398 7 L 19.709 7 L 16 3.375 L 16 6.602 Z" fill="currentColor" fill-rule="nonzero"></path></symbol>
  <symbol id="icon-error-filled" viewBox="0 0 28 28"><path d="M 14 28 C 21.732 28 28 21.732 28 14 C 28 6.268 21.732 0 14 0 C 6.268 0 0 6.268 0 14 C 0 21.732 6.268 28 14 28 Z M 15.5 20.496 C 15.5 21.325 14.828 21.996 14 21.996 C 13.172 21.996 12.5 21.325 12.5 20.496 C 12.5 19.668 13.172 18.996 14 18.996 C 14.828 18.996 15.5 19.668 15.5 20.496 Z M 15.25 7.25 C 15.25 6.56 14.69 6 14 6 C 13.31 6 12.75 6.56 12.75 7.25 L 12.75 15.781 C 12.75 16.472 13.31 17.031 14 17.031 C 14.69 17.031 15.25 16.472 15.25 15.781 L 15.25 7.25 Z" fill="currentColor" fill-rule="evenodd"></path></symbol>
  <symbol id="icon-filter" viewBox="0 0 25.999 26"><path d="M 23.237 0 C 24.327 0 25.258 0.554 25.714 1.397 C 26.185 2.269 26.094 3.373 25.281 4.187 C 25.273 4.194 25.265 4.202 25.257 4.209 L 17 11.942 L 17 19.016 C 17 19.201 16.948 19.383 16.851 19.541 L 13.563 24.868 L 13.564 24.869 C 13.204 25.465 12.606 25.766 12.07 25.898 C 11.525 26.033 10.933 26.027 10.393 25.92 C 9.856 25.813 9.295 25.591 8.845 25.223 C 8.383 24.844 7.999 24.268 7.999 23.521 L 7.999 11.906 L 0.698 4.165 L 0.699 4.164 C -0.095 3.352 -0.182 2.261 0.285 1.397 C 0.737 0.561 1.656 0.01 2.735 0.001 C 2.741 0.001 2.748 0 2.754 0 L 23.237 0 Z M 9.999 23.521 C 9.999 23.525 9.991 23.575 10.114 23.676 C 10.249 23.786 10.481 23.898 10.783 23.958 C 11.081 24.017 11.372 24.011 11.589 23.957 C 11.785 23.908 11.844 23.844 11.852 23.835 L 11.857 23.827 L 15 18.731 L 15 11.51 C 15 11.233 15.115 10.968 15.317 10.779 L 23.873 2.765 C 23.966 2.668 23.991 2.592 23.998 2.545 C 24.005 2.492 23.996 2.425 23.955 2.349 C 23.873 2.197 23.646 2 23.237 2 L 2.762 2 C 2.353 2 2.126 2.197 2.044 2.349 C 2.003 2.425 1.994 2.492 2.001 2.545 C 2.006 2.581 2.022 2.635 2.071 2.701 L 2.132 2.772 L 2.153 2.793 L 9.727 10.823 C 9.902 11.009 9.999 11.255 9.999 11.51 L 9.999 23.521 Z" fill="currentColor" fill-rule="nonzero"></path></symbol>
  <symbol id="icon-group" viewBox="0 0 28 25"><path d="M 17.578 18 C 19.402 18 21.011 19.385 21 21.256 L 21 21.259 L 20.979 23.793 C 20.993 23.86 21 23.929 21 24 C 21 24.552 20.552 25 20 25 L 8.023 25 C 7.475 25 7.028 24.558 7.023 24.009 L 7 21.256 C 6.989 19.385 8.598 18 10.422 18 L 17.578 18 Z M 10.422 20 C 9.554 20 8.997 20.63 9 21.244 L 9.015 23 L 18.985 23 L 19 21.244 C 19.003 20.63 18.446 20 17.578 20 L 10.422 20 Z M 8 10 C 8.552 10 9 10.448 9 11 C 9 11.552 8.552 12 8 12 L 3.391 12 C 2.553 12 1.997 12.617 2 13.243 L 2 13.244 L 2.015 15 L 8 15 C 8.552 15 9 15.448 9 16 C 9 16.552 8.552 17 8 17 L 1 17 C 0.448 17 0 16.552 0 16 C 0 15.929 0.008 15.86 0.022 15.794 L 0 13.259 L 0 13.256 C -0.011 11.397 1.571 10 3.391 10 L 8 10 Z M 24.609 10 C 26.429 10 28.011 11.397 28 13.256 L 28 13.259 L 27.979 15.794 C 27.992 15.86 28 15.929 28 16 C 28 16.552 27.552 17 27 17 L 20 17 C 19.448 17 19 16.552 19 16 C 19 15.448 19.448 15 20 15 L 25.985 15 L 26 13.244 L 26 13.243 C 26.003 12.617 25.447 12 24.609 12 L 20 12 C 19.448 12 19 11.552 19 11 C 19 10.448 19.448 10 20 10 L 24.609 10 Z M 14 8 C 16.209 8 18 9.791 18 12 C 18 14.209 16.209 16 14 16 C 11.791 16 10 14.209 10 12 C 10 9.791 11.791 8 14 8 Z M 14 10 C 12.895 10 12 10.895 12 12 C 12 13.105 12.895 14 14 14 C 15.105 14 16 13.105 16 12 C 16 10.895 15.105 10 14 10 Z M 6 0 C 8.209 0 10 1.791 10 4 C 10 6.209 8.209 8 6 8 C 3.791 8 2 6.209 2 4 C 2 1.791 3.791 0 6 0 Z M 22 0 C 24.209 0 26 1.791 26 4 C 26 6.209 24.209 8 22 8 C 19.791 8 18 6.209 18 4 C 18 1.791 19.791 0 22 0 Z M 6 2 C 4.895 2 4 2.895 4 4 C 4 5.105 4.895 6 6 6 C 7.105 6 8 5.105 8 4 C 8 2.895 7.105 2 6 2 Z M 22 2 C 20.895 2 20 2.895 20 4 C 20 5.105 20.895 6 22 6 C 23.105 6 24 5.105 24 4 C 24 2.895 23.105 2 22 2 Z" fill="currentColor" fill-rule="nonzero"></path></symbol>
  <symbol id="icon-information" viewBox="0 0 28 28"><path d="M 14 0 C 21.732 0 28 6.268 28 14 C 28 21.732 21.732 28 14 28 C 6.268 28 0 21.732 0 14 C 0 6.268 6.268 0 14 0 Z M 14 2 C 7.373 2 2 7.373 2 14 C 2 20.627 7.373 26 14 26 C 20.627 26 26 20.627 26 14 C 26 7.373 20.627 2 14 2 Z M 14 10.996 C 14.69 10.996 15.25 11.556 15.25 12.246 L 15.25 20.75 C 15.25 21.44 14.69 22 14 22 C 13.31 22 12.75 21.44 12.75 20.75 L 12.75 12.246 C 12.75 11.556 13.31 10.996 14 10.996 Z M 14 6 C 14.828 6 15.5 6.672 15.5 7.5 C 15.5 8.328 14.828 9 14 9 C 13.172 9 12.5 8.328 12.5 7.5 C 12.5 6.672 13.172 6 14 6 Z" fill="currentColor" fill-rule="nonzero"></path></symbol>
  <symbol id="icon-lightbulb" viewBox="0 0 28 28"><path d="M 14.999 1 C 14.999 0.448 14.551 0 13.999 0 C 13.446 0 12.999 0.448 12.999 1 L 12.999 3 C 12.999 3.552 13.446 4 13.999 4 C 14.551 4 14.999 3.552 14.999 3 L 14.999 1 Z" fill="currentColor" fill-rule="nonzero"></path>
  <path d="M 0 14 C 0 13.448 0.448 13 1 13 L 3 13 C 3.552 13 4 13.448 4 14 C 4 14.552 3.552 15 3 15 L 1 15 C 0.448 15 0 14.552 0 14 Z" fill="currentColor" fill-rule="nonzero"></path>
  <path d="M 24 14 C 24 13.448 24.448 13 25 13 L 27 13 C 27.552 13 28 13.448 28 14 C 28 14.552 27.552 15 27 15 L 25 15 C 24.448 15 24 14.552 24 14 Z" fill="currentColor" fill-rule="nonzero"></path>
  <path d="M 24.158 4.305 C 24.542 4.703 24.531 5.336 24.133 5.719 L 22.695 7.109 C 22.297 7.492 21.664 7.481 21.281 7.084 C 20.897 6.687 20.908 6.054 21.305 5.67 L 22.744 4.281 C 23.141 3.897 23.774 3.908 24.158 4.305 Z" fill="currentColor" fill-rule="nonzero"></path>
  <path d="M 24.133 21.67 C 24.531 22.054 24.542 22.687 24.158 23.084 C 23.774 23.481 23.141 23.492 22.744 23.109 L 21.305 21.719 C 20.908 21.336 20.897 20.703 21.281 20.305 C 21.664 19.908 22.297 19.897 22.695 20.281 L 24.133 21.67 Z" fill="currentColor" fill-rule="nonzero"></path>
  <path d="M 3.281 4.305 C 2.897 4.703 2.908 5.336 3.305 5.719 L 4.744 7.109 C 5.141 7.492 5.774 7.481 6.158 7.084 C 6.542 6.687 6.531 6.054 6.133 5.67 L 4.695 4.281 C 4.297 3.897 3.664 3.908 3.281 4.305 Z" fill="currentColor" fill-rule="nonzero"></path>
  <path d="M 3.305 21.67 C 2.908 22.054 2.897 22.687 3.281 23.084 C 3.664 23.481 4.297 23.492 4.695 23.109 L 6.133 21.719 C 6.531 21.336 6.542 20.703 6.158 20.305 C 5.774 19.908 5.141 19.897 4.744 20.281 L 3.305 21.67 Z" fill="currentColor" fill-rule="nonzero"></path>
  <path d="M 13.938 5 C 18.352 4.965 22 8.432 22 12.777 C 22 15.114 20.933 17.196 19.281 18.613 C 18.523 19.266 18.098 20.189 18.098 21.15 C 18.098 21.381 18.056 21.6 17.98 21.801 C 17.993 21.865 18 21.932 18 22 L 18 25.166 C 18 26.761 16.675 28 15.107 28 L 12.893 28 C 11.325 28 10 26.761 10 25.166 L 10 22 C 10 21.94 10.005 21.88 10.016 21.823 C 9.934 21.616 9.889 21.39 9.889 21.15 C 9.889 20.189 9.465 19.266 8.707 18.613 C 7.058 17.2 6.008 15.124 6 12.806 L 8.624 10.225 C 8.222 11.005 7.997 11.88 8 12.799 C 8.005 14.502 8.774 16.038 10.009 17.095 L 10.01 17.096 C 11.161 18.086 11.844 19.497 11.887 21 L 16.1 21 C 16.143 19.497 16.826 18.086 17.977 17.096 L 17.978 17.095 C 19.222 16.029 20 14.487 20 12.777 C 20 9.601 17.317 6.973 13.954 7 C 12.974 7.008 12.052 7.243 11.241 7.652 L 13.938 5 Z M 16 23 L 12 23 L 12 25.166 C 12 25.598 12.369 26 12.893 26 L 15.107 26 C 15.631 26 16 25.598 16 25.166 L 16 23 Z" fill="currentColor" fill-rule="evenodd"></path>
  <path d="M 11.241 7.652 L 13.938 5 C 9.58 5.035 5.985 8.507 6 12.806 L 8.624 10.225 C 9.19 9.129 10.109 8.222 11.241 7.652 Z" fill="currentColor" fill-rule="evenodd"></path></symbol>
  <symbol id="icon-log-out" viewBox="0 0 23.545 28"><path d="M 15 0 C 17.761 0 20 2.239 20 5 L 20 6 C 20 6.552 19.552 7 19 7 C 18.448 7 18 6.552 18 6 L 18 5 C 18 3.343 16.657 2 15 2 L 5 2 C 3.343 2 2 3.343 2 5 L 2 23 C 2 24.657 3.343 26 5 26 L 15 26 C 16.657 26 18 24.657 18 23 L 18 22 C 18 21.448 18.448 21 19 21 C 19.552 21 20 21.448 20 22 L 20 23 C 20 25.761 17.761 28 15 28 L 5 28 C 2.239 28 0 25.761 0 23 L 0 5 C 0 2.239 2.239 0 5 0 L 15 0 Z M 17.327 8.26 C 17.736 7.888 18.369 7.919 18.74 8.327 L 23.286 13.332 C 23.632 13.714 23.632 14.296 23.285 14.677 L 18.739 19.673 C 18.368 20.081 17.736 20.111 17.327 19.739 C 16.919 19.368 16.889 18.736 17.261 18.327 L 20.246 15.045 L 11 15.045 C 10.448 15.045 10 14.597 10 14.045 C 10 13.493 10.448 13.045 11 13.045 L 20.324 13.045 L 17.26 9.673 C 16.888 9.264 16.919 8.631 17.327 8.26 Z" fill="currentColor" fill-rule="nonzero"></path></symbol>
  <symbol id="icon-network" viewBox="0 0 28.000 23.000"><path d="M 0.014 13.835 C 0.105 13.29 0.62 12.923 1.165 13.014 C 5.67 13.768 9.224 17.321 9.986 21.833 C 10.078 22.377 9.711 22.894 9.167 22.986 C 8.622 23.078 8.106 22.711 8.014 22.166 C 7.393 18.492 4.497 15.6 0.835 14.986 C 0.29 14.895 -0.077 14.38 0.014 13.835 Z M 1.1 7.005 C 8.955 7.789 15.214 14.049 15.995 21.901 C 16.05 22.451 15.648 22.94 15.099 22.995 C 14.549 23.05 14.06 22.648 14.005 22.099 C 13.318 15.195 7.809 9.685 0.9 8.995 C 0.351 8.94 -0.05 8.45 0.005 7.9 C 0.06 7.351 0.55 6.95 1.1 7.005 Z M 0.147 19.479 C 0.436 19.008 1.05 18.859 1.521 19.146 C 2.477 19.731 3.28 20.524 3.857 21.485 C 4.142 21.959 3.989 22.573 3.516 22.857 C 3.042 23.142 2.427 22.988 2.143 22.515 C 1.738 21.841 1.171 21.277 0.479 20.854 C 0.007 20.565 -0.141 19.95 0.147 19.479 Z M 24.112 0 C 26.252 0 28 1.721 28 3.855 L 28 18.145 C 28 20.29 26.25 22 24.112 22 L 19 22 C 18.448 22 18 21.552 18 21 C 18 20.448 18.448 20 19 20 L 24.112 20 C 25.168 20 26 19.163 26 18.145 L 26 3.855 C 26 2.844 25.166 2 24.112 2 L 3.888 2 C 2.895 2 2 2.917 2 4 C 2 4.552 1.552 5 1 5 C 0.448 5 0 4.552 0 4 C 0 1.918 1.687 0 3.888 0 L 24.112 0 Z" fill="currentColor" fill-rule="nonzero"></path></symbol>
  <symbol id="icon-recommend" viewBox="0 0 28 26"><path d="M 13.423 2.326 C 13.423 2.326 13.423 2.326 13.423 2.326 L 10.185 8.344 C 10.037 8.619 9.77 8.809 9.462 8.858 L 2.543 9.964 C 2.543 9.964 2.542 9.964 2.542 9.964 C 1.986 10.057 1.864 10.642 2.18 10.952 C 2.18 10.953 2.18 10.952 2.18 10.952 L 7.116 15.766 C 7.348 15.992 7.456 16.317 7.406 16.637 L 6.358 23.322 L 6.357 23.325 C 6.291 23.739 6.761 24.185 7.282 23.932 L 13.576 20.899 C 13.85 20.767 14.169 20.767 14.444 20.899 L 20.732 23.929 C 20.732 23.93 20.733 23.93 20.733 23.93 C 21.253 24.177 21.724 23.733 21.662 23.32 C 21.662 23.32 21.662 23.321 21.662 23.32 L 20.613 16.637 C 20.563 16.317 20.671 15.992 20.902 15.766 L 25.82 10.962 C 26.143 10.646 26.007 10.059 25.464 9.974 L 25.461 9.974 L 18.538 8.867 C 18.231 8.818 17.964 8.628 17.816 8.353 L 14.613 2.4 C 14.597 2.376 14.582 2.351 14.569 2.326 C 14.334 1.892 13.658 1.892 13.423 2.326 Z M 16.283 1.295 C 15.258 -0.458 12.64 -0.431 11.664 1.375 L 11.663 1.376 L 8.659 6.961 L 2.224 7.99 L 2.22 7.99 C 0.142 8.331 -0.775 10.857 0.782 12.382 L 0.784 12.384 L 5.351 16.837 L 4.383 23.01 C 4.383 23.01 4.383 23.011 4.383 23.011 C 4.042 25.152 6.299 26.631 8.153 25.732 C 8.153 25.733 8.153 25.732 8.153 25.732 L 14.01 22.91 L 19.868 25.733 L 19.871 25.735 C 21.726 26.62 23.964 25.14 23.638 23.016 L 22.668 16.837 L 27.219 12.391 C 28.77 10.872 27.868 8.328 25.776 7.998 C 25.775 7.998 25.775 7.998 25.774 7.998 L 19.342 6.97 L 16.338 1.385 C 16.321 1.354 16.303 1.324 16.283 1.295 Z" fill="currentColor" fill-rule="evenodd"></path></symbol>
  <symbol id="icon-arrow-up-right" viewBox="0 0 20 20"><path d="M 19 0 C 19.267 0 19.523 0.107 19.711 0.297 C 19.899 0.487 20.003 0.744 20 1.011 L 19.843 16.011 C 19.837 16.563 19.384 17.006 18.832 17 C 18.28 16.994 17.837 16.541 17.843 15.989 L 17.974 3.439 L 1.707 19.707 C 1.317 20.098 0.683 20.098 0.293 19.707 C -0.098 19.317 -0.098 18.683 0.293 18.293 L 16.586 2 L 4 2 C 3.448 2 3 1.552 3 1 C 3 0.448 3.448 0 4 0 L 19 0 Z" fill="currentColor" fill-rule="evenodd"></path></symbol>
  <symbol id="icon-arrow-down-right" viewBox="0 0 20 20"><path d="M 19 20 C 19.267 20 19.523 19.893 19.711 19.703 C 19.899 19.513 20.003 19.256 20 18.989 L 19.843 3.989 C 19.837 3.437 19.384 2.994 18.832 3 C 18.28 3.006 17.837 3.459 17.843 4.011 L 17.974 16.561 L 1.707 0.293 C 1.317 -0.098 0.683 -0.098 0.293 0.293 C -0.098 0.683 -0.098 1.317 0.293 1.707 L 16.586 18 L 4 18 C 3.448 18 3 18.448 3 19 C 3 19.552 3.448 20 4 20 L 19 20 Z" fill="currentColor" fill-rule="evenodd"></path></symbol>
  <symbol id="icon-warning-alt" viewBox="0 0 28 28"><path d="M 14 2 L 27 25 L 1 25 Z M 14 5.5 L 4.5 23 L 23.5 23 Z M 13 11 L 13 17 L 15 17 L 15 11 Z M 13 19 L 13 21 L 15 21 L 15 19 Z" fill="currentColor" fill-rule="evenodd"></path></symbol>
  <symbol id="icon-user" viewBox="0 0 28 28"><circle cx="14" cy="9" r="4.4" fill="none" stroke="currentColor" stroke-width="2.2"></circle><path d="M5.5 23.5 c0 -4.7 3.9 -7.6 8.5 -7.6 s8.5 2.9 8.5 7.6" fill="none" stroke="currentColor" stroke-width="2.2" stroke-linecap="round"></path></symbol>
  <symbol id="icon-close" viewBox="0 0 28 28"><path d="M7 7 L21 21 M21 7 L7 21" fill="none" stroke="currentColor" stroke-width="2.4" stroke-linecap="round"></path></symbol>
  <symbol id="icon-copy" viewBox="0 0 28 28"><rect x="9.5" y="9.5" width="13.5" height="15.5" rx="2.6" fill="none" stroke="currentColor" stroke-width="2.2"></rect><path d="M6 19 H5.6 A2.4 2.4 0 0 1 3.2 16.6 V5.6 A2.4 2.4 0 0 1 5.6 3.2 H16.6 A2.4 2.4 0 0 1 19 5.6 V6" fill="none" stroke="currentColor" stroke-width="2.2" stroke-linecap="round"></path></symbol>
  <symbol id="icon-play" viewBox="0 0 28 28"><path d="M8 5.5 L22 14 L8 22.5 Z" fill="currentColor" stroke="currentColor" stroke-width="2.2" stroke-linejoin="round"></path></symbol>
  <symbol id="icon-renew" viewBox="0 0 28 28"><path d="M24 14 A10 10 0 1 1 21 6.9" fill="none" stroke="currentColor" stroke-width="2.3" stroke-linecap="round"></path><path d="M24 4 V11 H17" fill="none" stroke="currentColor" stroke-width="2.3" stroke-linecap="round" stroke-linejoin="round"></path></symbol>
  <symbol id="icon-shield-check" viewBox="0 0 28 28"><path d="M14 3 L23 7 V13.5 C23 19.5 19 22.8 14 25 C9 22.8 5 19.5 5 13.5 V7 Z" fill="none" stroke="currentColor" stroke-width="2.1" stroke-linejoin="round"></path><path d="M9.7 13.7 L12.7 16.7 L18.4 10.6" fill="none" stroke="currentColor" stroke-width="2.1" stroke-linecap="round" stroke-linejoin="round"></path></symbol>
</svg>
